<?xml version="1.0" encoding="utf-8"?>
<!-- Generator: Adobe Illustrator 15.1.0, SVG Export Plug-In . SVG Version: 6.00 Build 0)  -->
<!DOCTYPE svg PUBLIC "-//W3C//DTD SVG 1.1//EN" "http://www.w3.org/Graphics/SVG/1.1/DTD/svg11.dtd">
<svg version="1.1" id="Layer_1" xmlns="http://www.w3.org/2000/svg" xmlns:xlink="http://www.w3.org/1999/xlink" x="0px" y="0px"
	 width="192px" height="245.564px" viewBox="0 0 192 245.564" enable-background="new 0 0 192 245.564" xml:space="preserve">
<path d="M111.356,70.117V38.694C111.356,12.898,96.431,0,66.583,0C45.62,0,25.963,7.951,7.608,23.849V3.946H0v241.618h7.608v-91.396
	c17.364-16.758,37.14-25.138,59.328-25.138c2.119,0,5.594,0.291,10.418,0.872v48.241c0,6.103,5.543,11.385,16.637,15.838
	c11.092,4.456,24.242,6.684,39.45,6.684c22.28,0,41.797-6.587,58.558-19.762V52.511C168.654,69.39,141.773,75.255,111.356,70.117z
	 M67.44,121.91c-22.312,0-42.254,7.362-59.832,22.086V33.163C26.827,15.802,46.482,7.12,66.57,7.12
	c25.111,0,37.666,10.85,37.666,32.548v89.798C92.839,124.432,80.573,121.91,67.44,121.91z M105.979,143.125
	c0,4.747-7.171,10.607-21.505,17.582v-29.787C98.809,132.859,105.979,136.928,105.979,143.125z M184.88,177.707
	c-15.112,10.559-31.967,15.838-50.566,15.838c-13.273,0-25.21-1.886-35.817-5.662c-10.607-3.773-15.911-8.083-15.911-12.922
	c0-3.872,4.117-7.696,12.351-11.472l3.923-1.741c8.331-3.87,12.496-9.631,12.496-17.279V77.246
	c6.296,1.199,13.513,1.799,21.65,1.799c16.95,0,34.241-4.235,51.874-12.711V177.707z"/>
</svg>
